<svg width="298" height="298" xmlns="http://www.w3.org/2000/svg" xmlns:xlink="http://www.w3.org/1999/xlink" xml:space="preserve" overflow="hidden"><g transform="translate(-499 -68)"><path d="M734.917 229.417C734.917 232.831 732.123 235.625 728.708 235.625L710.083 235.625C706.669 235.625 703.875 232.831 703.875 229.417L703.875 223.208C703.875 219.794 706.669 217 710.083 217L728.708 217C732.123 217 734.917 219.794 734.917 223.208L734.917 229.417ZM574.431 198.375 592.435 155.538C593.367 153.365 595.54 151.812 598.023 151.812L697.356 151.812C699.84 151.812 702.013 153.365 702.944 155.538L721.569 198.375 574.431 198.375ZM592.125 229.417C592.125 232.831 589.331 235.625 585.917 235.625L567.292 235.625C563.877 235.625 561.083 232.831 561.083 229.417L561.083 223.208C561.083 219.794 563.877 217 567.292 217L585.917 217C589.331 217 592.125 219.794 592.125 223.208L592.125 229.417ZM734.917 198.375 714.74 150.881C711.946 143.742 705.117 139.396 697.667 139.396L672.833 139.396 672.833 133.188C672.833 126.358 667.246 120.771 660.417 120.771L635.583 120.771C628.754 120.771 623.167 126.358 623.167 133.188L623.167 139.396 598.333 139.396C590.883 139.396 584.054 143.742 581.26 150.881L561.083 198.375C550.84 198.375 542.458 206.756 542.458 217L542.458 266.667C542.458 273.496 548.046 279.083 554.875 279.083L561.083 279.083 561.083 300.812C561.083 307.642 566.671 313.229 573.5 313.229L579.708 313.229C586.537 313.229 592.125 307.642 592.125 300.812L592.125 279.083 703.875 279.083 703.875 300.812C703.875 307.642 709.463 313.229 716.292 313.229L722.5 313.229C729.329 313.229 734.917 307.642 734.917 300.812L734.917 279.083 741.125 279.083C747.954 279.083 753.542 273.496 753.542 266.667L753.542 217C753.542 206.756 745.16 198.375 734.917 198.375Z"/></g></svg>